PathFileType	4	(X/Y/Z)	C:/Users/beibeiliu/ov580/test_trc\sequence.32_training_dense_left.trc
DataRate	CameraRate	NumFrames	NumMarkers	Units	OrigDataRate	OrigDataStartFrame	OrigNumFrames
120	120	17	19	mm	120	272	310
Frame#	Time	ThumbCMC			ThumbMCP			ThumbIP			ThumbTip			IndexMCP			IndexPIP			IndexTip			MiddleMCP			MiddlePIP			MiddleTip			RingMCP			RingPIP			RingTip			PinkyMCP			PinkyPIP			PinkyTip			BackHand1			BackHand2			BackHand3	
		X0	Y0	Z0	X1	Y1	Z1	X2	Y2	Z2	X3	Y3	Z3	X4	Y4	Z4	X5	Y5	Z5	X6	Y6	Z6	X7	Y7	Z7	X8	Y8	Z8	X9	Y9	Z9	X10	Y10	Z10	X11	Y11	Z11	X12	Y12	Z12	X13	Y13	Z13	X14	Y14	Z14	X15	Y15	Z15	X16	Y16	Z16	X17	Y17	Z17	X18	Y18	Z18	
271	2.25833	-184.991	39.456	16.3764	-180.335	16.9382	-7.0772	-178.906	6.30767	-25.5069	-185.062	-0.361666	-45.1424	-181.132	47.8422	-50.4213	-187.426	24.8249	-63.835	-202.712	1.57977	-51.9412	-202.46	64.4141	-57.1894	-199.967	54.1465	-79.0026	-206.454	31.5512	-95.4544	-220.779	70.3447	-44.4468	-221.28	70.4718	-71.6517	-226.011	63.4016	-92.5219	-241.781	70.4868	-32.2604	-251.917	76.9288	-51.3271	-257.846	80.1115	-70.2704	-222.685	75.0242	-5.22423	-220.496	76.2626	23.4352	-196.326	69.2891	8.77118	
272	2.26667	-184.925	37.6004	19.3538	-184.651	17.7824	-2.02935	-181.229	3.64175	-26.7779	-183.952	-5.8005	-39.3507	-185.782	46.2803	-48.4772	-187.995	23.0912	-62.4826	-203.171	0.772676	-51.9866	-203.009	60.1639	-57.238	-205.834	45.2639	-81.8849	-207.566	23.8426	-93.723	-221.077	67.6706	-49.0713	-221.666	65.8891	-70.104	-223.893	55.2827	-93.097	-243.47	68.0667	-30.7521	-251.897	72.1204	-50.745	-259.056	74.1806	-66.5082	-223.007	74.3175	-1.90229	-219.299	76.684	23.9638	-195.597	67.9586	10.3036	
273	2.275	-184.822	36.66	16.9652	-185.752	14.7227	0.105553	-184.898	2.42029	-22.5633	-186.154	-9.62491	-37.8837	-181.11	40.7445	-45.309	-186.825	16.1632	-60.7819	-200.854	-6.52872	-47.3847	-201.851	54.6995	-54.7611	-205.755	43.162	-79.3604	-208.331	16.765	-93.0217	-223.842	64.6581	-50.3361	-222.16	59.7031	-71.1692	-226.136	46.8888	-95.2115	-242.25	64.4993	-32.6096	-253.778	67.6919	-52.7666	-255.699	70.5844	-68.9762	-221.253	72.717	-3.21553	-219.887	75.6955	22.0805	-197.927	67.3217	7.89513	
274	2.28333	-187.735	35.7183	17.8014	-184.027	10.6911	1.07522	-182.035	-3.85124	-20.42	-185.667	-15.8008	-36.313	-186.217	36.8429	-47.6024	-190.827	12.8949	-60.7923	-205.576	-9.76435	-46.6475	-201.425	50.8171	-56.2837	-201.628	34.3501	-80.1027	-209.271	10.6715	-91.5359	-224.701	60.019	-50.339	-226.217	54.6042	-72.8385	-228.577	41.5467	-92.8853	-246.089	62.5537	-35.5154	-254.177	62.3765	-52.7679	-259.717	64.9051	-72.1984	-218.412	68.1067	-6.5657	-218.43	73.674	16.2363	-195.825	66.5044	8.92844	
275	2.29167	-184.303	33.0914	17.4594	-184.766	8.64237	1.42492	-183.811	-6.08004	-19.1885	-188.839	-19.6786	-38.5756	-182.87	32.4834	-47.564	-191.181	4.70082	-59.3101	-205.614	-14.7222	-46.6606	-202.833	45.5487	-58.3507	-203.173	27.217	-80.3308	-216.77	4.08215	-89.2022	-220.809	55.857	-48.8097	-226.029	49.5952	-74.4584	-227.631	33.9674	-95.3628	-242.019	59.0159	-36.5938	-250.757	58.1443	-54.7809	-259.328	56.9271	-74.4118	-221.359	67.4171	-8.23273	-220.141	75.7646	14.4873	-193.773	63.5107	4.64511	
276	2.3	-188.432	33.6356	19.6502	-186.968	6.83623	2.20805	-188.199	-6.46912	-14.5197	-191.229	-20.6391	-33.4743	-183.767	25.3687	-48.5779	-191.147	5.19131	-59.0168	-205.519	-16.2854	-46.7702	-202.917	41.0038	-58.0497	-206.269	22.6839	-77.8078	-217.166	-4.79705	-86.4348	-224.639	51.901	-49.5893	-227.958	44.4368	-72.3885	-228.183	29.0466	-90.4297	-245.038	56.6327	-39.3754	-253.283	55.432	-52.3536	-260.541	52.8074	-72.8753	-218.287	66.6297	-8.65122	-218.69	73.116	14.1408	-192.74	63.0466	5.56934	
277	2.30833	-187.901	30.6232	22.1825	-190.739	6.40123	3.29943	-191.303	-9.63959	-13.7863	-194.003	-24.3352	-29.5896	-186.43	21.2536	-47.5846	-193.308	-3.12008	-56.0356	-207.453	-24.2847	-42.1228	-205.74	36.7594	-54.572	-209.595	18.8985	-74.7295	-221.443	-12.1352	-81.5847	-222.532	46.7746	-50.135	-230.247	38.7406	-70.7265	-229.001	19.1354	-88.7023	-245.126	52.5833	-36.5289	-250.573	48.8574	-55.8268	-261.997	49.3531	-71.7934	-222.404	63.8029	-8.55764	-218.894	71.4595	15.8164	-196.453	59.2489	2.5944	
278	2.31667	-187.6	29.5211	22.7992	-188.087	1.23563	5.19964	-190.358	-13.363	-13.1337	-195.069	-28.947	-29.1534	-185.771	18.6361	-46.7624	-195.181	-5.50124	-55.1888	-207.863	-26.9981	-43.9421	-203.957	32.0794	-54.4795	-211.385	12.2217	-74.4178	-223.159	-14.8647	-77.2575	-226.611	44.0319	-48.5926	-231.621	31.9722	-71.4933	-233.597	15.8912	-86.0125	-248.207	51.1608	-33.8349	-252.27	45.6741	-56.0947	-259.326	43.3027	-70.3996	-223.825	61.6846	-8.54817	-218.196	72.0093	16.148	-194.509	57.1264	2.66012	
279	2.325	-187.375	28.0555	21.05	-193.069	3.22464	5.58351	-191.833	-17.0623	-12.2552	-198.773	-30.1821	-26.7861	-188.428	17.7638	-47.202	-193.182	-6.13524	-55.5602	-209.504	-29.0091	-45.4823	-208.336	29.2903	-56.1657	-214.063	8.80012	-73.2601	-225.151	-17.8637	-75.8091	-227.719	41.2562	-50.1144	-232.7	27.5179	-71.959	-234.192	8.48474	-84.1384	-248.767	47.901	-34.8822	-255.087	45.7251	-49.9889	-264.796	41.4329	-67.6287	-219.131	58.989	-10.7386	-221.631	72.1826	13.4788	-195.825	59.6451	5.32239	
280	2.33333	-187.367	28.7147	22.3365	-191.371	0.634955	5.98726	-196.805	-13.1043	-12.242	-201.333	-30.2549	-23.6825	-188.979	19.8064	-45.2308	-196.927	-1.90426	-58.8657	-206.889	-26.0696	-52.4756	-205.295	28.2888	-54.2476	-213.062	11.0239	-71.6741	-222.508	-20.0482	-74.4441	-226.944	41.1564	-47.0069	-230.341	23.3644	-71.7376	-237.942	3.91347	-82.4087	-247.579	48.1654	-35.1609	-256.212	43.6706	-53.1226	-263.464	38.3299	-69.8895	-220.973	60.8359	-10.0662	-222.689	73.1966	16.1164	-198.153	59.5439	5.12378	
281	2.34167	-190.387	29.0009	19.5672	-191.022	-1.60989	5.1514	-197.535	-15.2495	-8.38976	-207.847	-27.1117	-25.032	-189.668	19.6905	-44.8618	-194.001	-5.61551	-60.3571	-206.369	-28.6663	-54.7986	-206.443	27.5997	-56.5954	-214.706	5.7299	-72.7761	-227.194	-18.2569	-72.8004	-225.834	37.5366	-51.0545	-233.4	22.6143	-69.2216	-234.804	-3.62635	-76.9762	-249.061	47.7838	-32.8476	-253.635	40.2426	-55.9275	-264.371	31.9058	-72.3254	-220.811	58.2187	-10.5922	-221.173	71.008	14.4397	-197.871	57.1337	3.74649	
282	2.35	-186.786	25.3954	17.914	-193.068	-0.196983	8.17472	-197.184	-18.1302	-7.12499	-211.712	-31.4979	-25.6798	-187.21	17.22	-47.8716	-191.402	-3.70647	-60.3095	-206.002	-29.9073	-57.6869	-210.477	27.0121	-56.7598	-213.089	5.26772	-73.2051	-226.197	-19.0309	-72.0688	-225.165	34.9228	-51.3242	-231.491	15.6757	-68.1398	-241.246	-10.1264	-70.5405	-246.331	45.0556	-37.876	-256.845	38.0596	-56.1191	-262.56	26.3725	-71.4522	-218.78	59.3608	-11.704	-223.051	70.044	13.3397	-193.418	56.4243	2.24802	
283	2.35833	-188.974	27.5474	19.243	-193.605	-2.26942	4.13514	-200.906	-17.1601	-9.9551	-213.728	-30.1784	-24.5658	-187.05	18.929	-44.9203	-191.407	-1.08847	-61.1943	-205.461	-27.9408	-60.8004	-207.371	25.9612	-56.0058	-215.699	6.91057	-72.2108	-227.781	-20.2425	-70.6482	-228.956	34.833	-49.5185	-235.808	12.7933	-65.7726	-240.499	-12.5959	-62.2271	-247.835	44.1259	-36.9905	-257.247	37.0168	-52.9294	-261.609	25.3296	-69.8502	-222.627	60.8862	-10.1551	-216.689	68.4786	14.1056	-192.656	55.5977	1.50896	
284	2.36667	-190.604	27.1677	20.2496	-193.97	-2.26727	7.67827	-201.376	-18.063	-9.41216	-219.188	-24.2391	-26.1998	-188.972	19.8532	-43.896	-196.098	-5.4884	-63.4983	-204.949	-29.7792	-60.664	-207.855	26.8878	-53.2589	-214.219	6.45915	-71.9218	-226.602	-22.6239	-67.6721	-227.029	31.2288	-49.3043	-234.558	10.7291	-63.3854	-238.588	-14.9052	-55.9412	-244.303	42.6518	-39.035	-253.209	36.2126	-52.9287	-263.414	17.7126	-69.6111	-219.153	56.8609	-11.3016	-220.935	71.9772	14.8327	-192.316	53.8972	3.27	
285	2.375	-191.395	25.2404	18.8204	-193.709	-5.75439	6.58629	-205.09	-17.5327	-9.53375	-220.028	-29.5136	-25.5876	-190.478	15.3479	-47.5158	-192.528	-9.3473	-61.9285	-205.218	-30.364	-60.3209	-209.874	24.6232	-56.64	-215.641	0.62528	-71.9366	-228.232	-24.9699	-65.0521	-228.517	31.1839	-47.2805	-234.084	6.62014	-61.2176	-243.429	-16.9109	-49.5211	-243.886	42.3316	-38.1723	-255.796	33.7801	-55.3882	-260.646	17.7512	-67.566	-219.565	58.4739	-10.097	-220.072	67.5102	10.777	-194.651	53.8587	4.95794	
286	2.38333	-193.083	23.3445	16.3993	-197.067	-5.39251	8.0141	-207.546	-20.3936	-12.2122	-224.99	-25.3874	-27.0611	-190.634	12.5847	-48.26	-195.546	-8.8382	-61.5491	-209.349	-29.3767	-59.1349	-210.617	25.0882	-53.045	-217.662	2.81995	-71.6153	-232.661	-25.842	-61.628	-226.839	26.7013	-51.3421	-238.918	3.11553	-60.1395	-244.586	-19.0673	-43.2469	-247.495	43.2872	-36.594	-253.203	34.1096	-54.9816	-260.325	14.6554	-68.9282	-222.418	54.8586	-12.726	-216.699	65.8516	11.9764	-194.425	51.3235	4.99473	
287	2.39167	-192.281	22.7332	19.042	-200.057	-5.43052	3.20425	-209.226	-22.7166	-13.0477	-229.728	-26.8354	-27.9875	-191.397	10.6466	-48.4736	-199.079	-8.85193	-61.9897	-213.213	-35.6443	-53.6268	-211.669	23.4575	-53.609	-219.843	-3.76023	-72.1028	-233.147	-26.8422	-60.5428	-230.467	26.0087	-48.8398	-237.846	2.88756	-59.4296	-243.801	-20.0016	-41.5986	-247.761	41.9912	-35.6157	-254.522	31.4781	-55.309	-258.126	13.6067	-66.0968	-223.284	55.8876	-13.9215	-219.802	67.9312	13.8969	-195.106	50.4423	3.21732	
